<svg viewBox="-75 -80 150 160" xmlns="http://www.w3.org/2000/svg">
<g fill="#E07A50">
<path d="M-8 -68 C-24 -66, -48 -52, -56 -30 C-64 -8, -58 18, -44 36 C-30 54, -8 66, 14 66 C36 66, 54 52, 60 32 C66 12, 58 -12, 44 -30 C30 -48, 10 -56, -2 -62 C-6 -64, -4 -70, -8 -68Z"/>
<circle cx="6" cy="-4" r="26" fill="#fff"/>
<circle cx="6" cy="-4" r="18" fill="#E07A50"/>
<circle cx="6" cy="-4" r="10" fill="#fff"/>
<circle cx="10" cy="-6" r="4.5"/>
<path d="M30 -18 C38 -26, 50 -34, 56 -44 C60 -50, 56 -56, 50 -52 C44 -46, 36 -32, 30 -22Z"/>
</g>
</svg>